# Blender 5.0.1
# www.blender.org
mtllib tetrahedron.mtl
o Cone.001
v 0.000000 -0.502312 -0.712499 x
v 0.617042 -0.502312 0.356250 x
v 0.000000 0.502312 -0.000000 x
v -0.617043 -0.502312 0.356250 x
vn 0.8166 -0.3328 0.4715
vn -0.0000 1.0000 -0.0000
vn -0.8166 -0.3328 0.4715
vn -0.0000 -0.3328 -0.9430
vt 0.199362 0.679351
vt 0.399522 0.333583
vt 0.599682 0.679351
vt 0.000000 0.332206
vt 0.799044 0.332206
vt 1.000000 0.678432
s 1
usemtl None
f 2/1/1 3/2/2 4/3/3
f 1/4/4 3/2/2 2/1/1
f 4/3/3 3/2/2 1/5/4
f 1/5/4 2/6/1 4/3/3
